<svg id="bullets" enable-background="new 0 0 300 300" height="512" viewBox="0 0 300 300" width="512" xmlns="http://www.w3.org/2000/svg"><g><circle cx="104" cy="122" fill="#e7d1c4" r="74"/><g fill="#4c241d"><circle cx="126" cy="52" r="4"/><path d="m236 224c-7.719 0-14-6.281-14-14s6.281-14 14-14 14 6.281 14 14-6.281 14-14 14zm0-20c-3.309 0-6 2.691-6 6s2.691 6 6 6 6-2.691 6-6-2.691-6-6-6z"/><path d="m174 75.512c-2.209 0-4-1.789-4-4v-5.66c0-2.211 1.791-4 4-4s4 1.789 4 4v5.66c0 2.211-1.791 4-4 4z"/><path d="m174 98.148c-2.209 0-4-1.789-4-4v-5.66c0-2.211 1.791-4 4-4s4 1.789 4 4v5.66c0 2.211-1.791 4-4 4z"/><path d="m165.512 84h-5.66c-2.209 0-4-1.789-4-4s1.791-4 4-4h5.66c2.209 0 4 1.789 4 4s-1.791 4-4 4z"/><path d="m188.148 84h-5.66c-2.209 0-4-1.789-4-4s1.791-4 4-4h5.66c2.209 0 4 1.789 4 4s-1.791 4-4 4z"/></g><g><path d="m66 120h48v68h-48z" fill="#fc8c29"/><path d="m114 192h-48c-2.209 0-4-1.789-4-4v-68c0-2.211 1.791-4 4-4h48c2.209 0 4 1.789 4 4v68c0 2.211-1.791 4-4 4zm-44-8h40v-60h-40z" fill="#4c241d"/></g><g><path d="m90 76c-5.714 0-20 20.536-20 36v8h40v-8c0-15.464-14.286-36-20-36z" fill="#ffce56"/><path d="m110 124h-40c-2.209 0-4-1.789-4-4v-8c0-15.699 14.58-40 24-40s24 24.301 24 40v8c0 2.211-1.791 4-4 4zm-36-8h32v-4c0-13.559-12.15-30.277-16-31.934-3.85 1.657-16 18.375-16 31.934z" fill="#4c241d"/></g><g><path d="m118 204h-56l4-16h48z" fill="#ffce56"/><path d="m118 208h-56c-1.232 0-2.395-.566-3.152-1.539-.758-.969-1.027-2.234-.729-3.43l4-16c.445-1.781 2.045-3.031 3.881-3.031h48c1.836 0 3.436 1.25 3.881 3.031l4 16c.299 1.195.029 2.461-.729 3.43-.758.973-1.92 1.539-3.152 1.539zm-50.877-8h45.754l-2-8h-41.754z" fill="#4c241d"/></g><path d="m102 156c-2.209 0-4-1.789-4-4v-20c0-2.211 1.791-4 4-4s4 1.789 4 4v20c0 2.211-1.791 4-4 4z" fill="#fff"/><g><path d="m142 172h48v68h-48z" fill="#fc8c29"/><path d="m190 244h-48c-2.209 0-4-1.789-4-4v-68c0-2.211 1.791-4 4-4h48c2.209 0 4 1.789 4 4v68c0 2.211-1.791 4-4 4zm-44-8h40v-60h-40z" fill="#4c241d"/></g><g><path d="m166 128c-5.714 0-20 20.536-20 36v8h40v-8c0-15.464-14.286-36-20-36z" fill="#ffce56"/><path d="m186 176h-40c-2.209 0-4-1.789-4-4v-8c0-15.699 14.58-40 24-40s24 24.301 24 40v8c0 2.211-1.791 4-4 4zm-36-8h32v-4c0-13.559-12.15-30.277-16-31.934-3.85 1.656-16 18.375-16 31.934z" fill="#4c241d"/></g><g><path d="m194 256h-56l4-16h48z" fill="#ffce56"/><path d="m194 260h-56c-1.232 0-2.395-.566-3.152-1.539-.758-.969-1.027-2.234-.729-3.43l4-16c.445-1.781 2.045-3.031 3.881-3.031h48c1.836 0 3.436 1.25 3.881 3.031l4 16c.299 1.195.029 2.461-.729 3.43-.758.973-1.92 1.539-3.152 1.539zm-50.877-8h45.754l-2-8h-41.754z" fill="#4c241d"/></g><path d="m178 208c-2.209 0-4-1.789-4-4v-20c0-2.211 1.791-4 4-4s4 1.789 4 4v20c0 2.211-1.791 4-4 4z" fill="#fff"/><g><path d="m214 88h48v68h-48z" fill="#fc8c29"/><path d="m262 160h-48c-2.209 0-4-1.789-4-4v-68c0-2.211 1.791-4 4-4h48c2.209 0 4 1.789 4 4v68c0 2.211-1.791 4-4 4zm-44-8h40v-60h-40z" fill="#4c241d"/></g><g><path d="m238 44c-5.714 0-20 20.536-20 36v8h40v-8c0-15.464-14.286-36-20-36z" fill="#ffce56"/><path d="m258 92h-40c-2.209 0-4-1.789-4-4v-8c0-15.699 14.58-40 24-40s24 24.301 24 40v8c0 2.211-1.791 4-4 4zm-36-8h32v-4c0-13.559-12.15-30.277-16-31.934-3.85 1.656-16 18.375-16 31.934z" fill="#4c241d"/></g><g><path d="m266 172h-56l4-16h48z" fill="#ffce56"/><path d="m266 176h-56c-1.232 0-2.395-.566-3.152-1.539-.758-.969-1.027-2.234-.729-3.43l4-16c.445-1.781 2.045-3.031 3.881-3.031h48c1.836 0 3.436 1.25 3.881 3.031l4 16c.299 1.195.029 2.461-.729 3.43-.758.973-1.92 1.539-3.152 1.539zm-50.877-8h45.754l-2-8h-41.754z" fill="#4c241d"/></g><path d="m250 124c-2.209 0-4-1.789-4-4v-20c0-2.211 1.791-4 4-4s4 1.789 4 4v20c0 2.211-1.791 4-4 4z" fill="#fff"/></g></svg>