<svg id="Layer_3" enable-background="new 0 0 64 64" height="512" viewBox="0 0 64 64" width="512" xmlns="http://www.w3.org/2000/svg"><g><g><circle cx="10" cy="54" fill="#78b75b" r="8"/></g><g><circle cx="32" cy="54" fill="#78b75b" r="8"/></g><g><circle cx="54" cy="54" fill="#78b75b" r="8"/></g><g><circle cx="32" cy="14" fill="#f5b953" r="12"/></g><g><circle cx="32" cy="14" fill="#fff" r="8"/></g><g><path d="m32 27c-7.168 0-13-5.832-13-13s5.832-13 13-13 13 5.832 13 13-5.832 13-13 13zm0-24c-6.065 0-11 4.935-11 11s4.935 11 11 11 11-4.935 11-11-4.935-11-11-11z"/></g><g><path d="m32 23v-2c3.86 0 7-3.14 7-7h2c0 4.962-4.038 9-9 9z"/></g><g><path d="m25 14h-2c0-4.962 4.038-9 9-9v2c-3.86 0-7 3.14-7 7z"/></g><g><path d="m10 63c-4.962 0-9-4.038-9-9s4.038-9 9-9 9 4.038 9 9-4.038 9-9 9zm0-16c-3.86 0-7 3.14-7 7s3.14 7 7 7 7-3.14 7-7-3.14-7-7-7z"/></g><g><path d="m32 63c-4.962 0-9-4.038-9-9s4.038-9 9-9 9 4.038 9 9-4.038 9-9 9zm0-16c-3.86 0-7 3.14-7 7s3.14 7 7 7 7-3.14 7-7-3.14-7-7-7z"/></g><g><path d="m54 63c-4.962 0-9-4.038-9-9s4.038-9 9-9 9 4.038 9 9-4.038 9-9 9zm0-16c-3.86 0-7 3.14-7 7s3.14 7 7 7 7-3.14 7-7-3.14-7-7-7z"/></g><g><path d="m31 26h2v20h-2z"/></g><g><path d="m4.399 34h27.203v2h-27.203z" transform="matrix(.588 -.809 .809 .588 -20.891 28.962)"/></g><g><path d="m45 21.399h2v27.203h-2z" transform="matrix(.809 -.588 .588 .809 -11.788 33.75)"/></g></g></svg>