<svg height="512pt" viewBox="0 0 512 512" width="512pt" xmlns="http://www.w3.org/2000/svg" xmlns:xlink="http://www.w3.org/1999/xlink"><linearGradient id="a" gradientUnits="userSpaceOnUse" x1="0" x2="512" y1="256" y2="256"><stop offset="0" stop-color="#00f1ff"/><stop offset=".231" stop-color="#00d8ff"/><stop offset=".5138" stop-color="#00c0ff"/><stop offset=".7773" stop-color="#00b2ff"/><stop offset="1" stop-color="#00adff"/></linearGradient><path d="m512 256c0 141.386719-114.613281 256-256 256s-256-114.613281-256-256 114.613281-256 256-256 256 114.613281 256 256zm0 0" fill="url(#a)"/><g fill="#fff"><path d="m232.78125 211.585938c-5.886719-5.824219-15.382812-5.78125-21.214844.105468-5.828125 5.886719-5.777344 15.386719.109375 21.214844l67.542969 66.867188c2.925781 2.894531 6.738281 4.339843 10.550781 4.339843 3.867188 0 7.730469-1.484375 10.664063-4.445312 5.828125-5.886719 5.777344-15.386719-.109375-21.214844zm0 0"/><path d="m207.617188 283.863281-96.019532 95.175781v-37.917968c0-8.28125-6.714844-15-15-15s-15 6.71875-15 15v53.972656c0 19.441406 15.707032 35.261719 35.003906 35.261719l56.835938.03125h.007812c8.28125 0 14.996094-6.710938 15-14.992188.003907-8.285156-6.707031-15.003906-14.992187-15.007812l-40.753906-.023438 96.035156-95.191406c5.882813-5.832031 5.925781-15.328125.09375-21.210937-5.832031-5.886719-15.328125-5.929688-21.210937-.097657zm0 0"/><path d="m395.140625 81.613281h-55.402344c-8.285156 0-15 6.71875-15 15 0 8.285157 6.714844 15 15 15h39.347657l-95.835938 95.269531c-5.875 5.839844-5.902344 15.335938-.0625 21.210938 2.929688 2.949219 6.78125 4.425781 10.636719 4.425781 3.824219 0 7.648437-1.453125 10.574219-4.363281l96-95.425781-.011719 40.207031c-.003907 8.285156 6.710937 15 14.996093 15.003906h.003907c8.28125 0 14.996093-6.714844 15-14.996094l.015625-56.066406c0-19.445312-15.816406-35.265625-35.261719-35.265625zm0 0"/></g></svg>