<?xml version="1.0" encoding="iso-8859-1"?>
<!-- Generator: Adobe Illustrator 19.0.0, SVG Export Plug-In . SVG Version: 6.00 Build 0)  -->
<svg version="1.1" id="Capa_1" xmlns="http://www.w3.org/2000/svg" xmlns:xlink="http://www.w3.org/1999/xlink" x="0px" y="0px"
	 viewBox="0 0 512.001 512.001" style="enable-background:new 0 0 512.001 512.001;" xml:space="preserve">
<path style="fill:#C8C6CD;" d="M505.341,197.755c-1.647-7.082-8.078-11.972-15.352-11.714c-18.241,0.694-38.936-13.507-51.556-35.37
	c-12.611-21.838-14.568-46.868-4.873-62.284c3.862-6.143,2.831-14.162-2.463-19.125c-28.639-26.859-63.527-47.027-100.893-58.325
	c-6.948-2.1-14.414,1.021-17.797,7.444C303.911,34.508,281.242,45.344,256,45.344s-47.911-10.836-56.407-26.963
	c-3.385-6.424-10.847-9.547-17.797-7.444c-37.367,11.298-72.255,31.466-100.893,58.325c-5.292,4.964-6.325,12.983-2.463,19.125
	c9.695,15.416,7.737,40.446-4.874,62.287c-12.617,21.862-33.345,36.066-51.555,35.368c-7.288-0.278-13.706,4.633-15.352,11.714
	C2.24,216.763,0,236.36,0,256c0,19.64,2.24,39.237,6.659,58.244c1.647,7.082,8.119,11.998,15.352,11.714
	c18.254-0.7,38.936,13.506,51.556,35.37c12.611,21.838,14.568,46.868,4.873,62.284c-3.862,6.143-2.831,14.162,2.463,19.125
	c28.639,26.859,63.527,47.027,100.893,58.325c6.949,2.103,14.414-1.021,17.797-7.444c8.497-16.127,31.165-26.963,56.407-26.963
	s47.911,10.836,56.407,26.963c2.676,5.08,7.902,8.094,13.411,8.094c1.456,0,2.933-0.211,4.387-0.651
	c37.367-11.298,72.255-31.466,100.893-58.325c5.292-4.964,6.325-12.983,2.463-19.125c-9.695-15.416-7.737-40.446,4.874-62.287
	c12.617-21.862,33.332-36.082,51.555-35.368c7.262,0.262,13.706-4.633,15.352-11.714c4.419-19.007,6.659-38.604,6.659-58.244
	S509.76,216.763,505.341,197.755z M121.163,281.859c-0.012,0-0.023,0-0.035,0c-6.838,0-13.27-2.659-18.113-7.487
	c-4.853-4.838-7.53-11.277-7.539-18.137c-0.012-6.847,2.645-13.291,7.482-18.142s11.275-7.53,18.125-7.539
	c0.013-0.001,0.034,0,0.054,0c6.83,0,13.256,2.657,18.098,7.483c4.855,4.839,7.535,11.279,7.547,18.125
	C146.8,270.306,135.305,281.834,121.163,281.859z M163.601,132.695c1.763-6.621,6.001-12.16,11.931-15.596
	c3.957-2.294,8.353-3.465,12.809-3.465c2.215,0,4.445,0.29,6.643,0.875c6.621,1.763,12.159,6.001,15.594,11.928
	c7.091,12.241,2.905,27.968-9.326,35.058c-5.929,3.435-12.843,4.355-19.464,2.592c-6.621-1.763-12.159-6.001-15.594-11.929
	C162.759,146.228,161.837,139.316,163.601,132.695z M210.981,385.697c-7.059,12.26-22.771,16.498-35.037,9.441
	c-5.938-3.417-10.19-8.941-11.974-15.556c-1.784-6.614-0.883-13.526,2.535-19.462c0.001-0.002,0.002-0.004,0.003-0.006
	c3.417-5.938,8.941-10.19,15.557-11.976c2.223-0.599,4.481-0.896,6.723-0.896c4.429,0,8.8,1.158,12.738,3.423
	C213.789,357.726,218.027,373.445,210.981,385.697z M256,281.647c-14.141,0-25.647-11.505-25.647-25.648
	s11.506-25.648,25.647-25.648c14.142,0,25.647,11.505,25.647,25.648C281.647,270.142,270.142,281.647,256,281.647z M301.019,126.302
	c4.745-8.24,13.397-12.855,22.285-12.855c4.336,0,8.731,1.099,12.752,3.414c5.938,3.417,10.19,8.941,11.974,15.556
	c1.784,6.614,0.883,13.526-2.535,19.462c-0.001,0.002-0.002,0.004-0.003,0.006c-3.417,5.938-8.941,10.19-15.557,11.976
	c-6.615,1.784-13.529,0.885-19.462-2.526C298.212,154.274,293.973,138.555,301.019,126.302z M348.4,379.306
	c-1.763,6.621-6.001,12.16-11.931,15.596c-5.925,3.433-12.835,4.353-19.452,2.59c-6.621-1.763-12.159-6.001-15.594-11.928l0,0
	c-7.091-12.241-2.905-27.968,9.326-35.058c5.93-3.435,12.843-4.355,19.464-2.592s12.159,6.001,15.594,11.929
	C349.243,365.772,350.163,372.684,348.4,379.306z M409.041,273.906c-4.837,4.852-11.275,7.53-18.125,7.539
	c-0.015-0.001-0.034,0-0.054,0c-6.83,0-13.256-2.657-18.098-7.483c-4.855-4.839-7.535-11.279-7.547-18.125
	c-0.019-14.145,11.476-25.672,25.618-25.697c0.012,0,0.023,0,0.035,0c6.838,0,13.27,2.659,18.113,7.487
	c4.853,4.838,7.53,11.277,7.539,18.137C416.535,262.613,413.88,269.056,409.041,273.906z"/>
<path style="fill:#AEADB3;" d="M489.988,186.041c-18.241,0.694-38.936-13.507-51.556-35.37
	c-12.611-21.838-14.568-46.868-4.873-62.284c3.862-6.143,2.831-14.162-2.463-19.125c-28.639-26.859-63.527-47.027-100.893-58.325
	c-6.948-2.1-14.414,1.021-17.797,7.444C303.911,34.508,281.242,45.344,256,45.344c-0.001,0-0.002,0-0.003,0v185.01
	c0.001,0,0.002,0,0.003,0c14.141,0,25.647,11.505,25.647,25.647c0,14.143-11.506,25.647-25.647,25.647c-0.001,0-0.002,0-0.003,0
	v185.01c0.001,0,0.002,0,0.003,0c25.242,0,47.911,10.836,56.407,26.963c2.676,5.08,7.902,8.094,13.411,8.094
	c1.456,0,2.933-0.211,4.387-0.651c37.367-11.298,72.255-31.466,100.893-58.325c5.292-4.964,6.325-12.983,2.463-19.125
	c-9.695-15.416-7.737-40.446,4.874-62.287c12.617-21.862,33.332-36.082,51.555-35.368c7.262,0.262,13.706-4.633,15.352-11.714
	c4.419-19.007,6.659-38.604,6.659-58.244s-2.24-39.237-6.659-58.244C503.693,190.674,497.262,185.783,489.988,186.041z
	 M301.019,126.302c4.745-8.24,13.397-12.855,22.285-12.855c4.336,0,8.731,1.099,12.752,3.414c5.938,3.417,10.19,8.941,11.974,15.556
	c1.784,6.614,0.883,13.526-2.535,19.462c-0.001,0.002-0.002,0.004-0.003,0.006c-3.417,5.938-8.941,10.19-15.557,11.976
	c-6.615,1.784-13.529,0.885-19.462-2.526C298.212,154.274,293.973,138.555,301.019,126.302z M348.4,379.306
	c-1.763,6.621-6.001,12.16-11.931,15.596c-5.925,3.433-12.835,4.353-19.452,2.59c-6.621-1.763-12.159-6.001-15.594-11.928l0,0
	c-7.091-12.241-2.905-27.968,9.326-35.058c5.93-3.435,12.843-4.355,19.464-2.592s12.159,6.001,15.594,11.929
	C349.243,365.772,350.163,372.684,348.4,379.306z M409.041,273.906c-4.837,4.852-11.275,7.53-18.125,7.539
	c-0.015-0.001-0.034,0-0.054,0c-6.83,0-13.256-2.657-18.098-7.483c-4.855-4.839-7.535-11.279-7.547-18.125
	c-0.019-14.145,11.476-25.672,25.618-25.697c0.012,0,0.023,0,0.035,0c6.838,0,13.27,2.659,18.113,7.487
	c4.853,4.838,7.53,11.277,7.539,18.137C416.535,262.613,413.88,269.056,409.041,273.906z"/>
<g>
</g>
<g>
</g>
<g>
</g>
<g>
</g>
<g>
</g>
<g>
</g>
<g>
</g>
<g>
</g>
<g>
</g>
<g>
</g>
<g>
</g>
<g>
</g>
<g>
</g>
<g>
</g>
<g>
</g>
</svg>
