<svg id="Layer_3" enable-background="new 0 0 64 64" height="512" viewBox="0 0 64 64" width="512" xmlns="http://www.w3.org/2000/svg"><path d="m24.901 11h10.198v2h-10.198z" fill="#8892a0" transform="matrix(.196 -.981 .981 .196 12.344 39.061)"/><path d="m33 6.901h2v10.198h-2z" fill="#8892a0" transform="matrix(.981 -.196 .196 .981 -1.693 6.901)"/><path d="m42 38h20v14h-20z" fill="#8892a0"/><path d="m2 38h20v14h-20z" fill="#8892a0"/><path d="m22 32v26h20v-26" fill="#c1c8d1"/><path d="m22 58 5 4h10l5-4" fill="#4472b2"/><path d="m36 25 6 7h-20l6-7" fill="#4472b2"/><path d="m42 16c0 5.523-4.477 10-10 10s-10-4.477-10-10z" fill="#a8b0bc"/><path d="m39.484 16h-17.484c0 2.089.642 4.027 1.738 5.631 1.115.233 2.278.369 3.485.369 5.351 0 9.979-2.441 12.261-6z" fill="#c1c8d1"/><path d="m34 36h4v18h-4z" fill="#fff"/><path d="m32 8c-1.654 0-3-1.346-3-3s1.346-3 3-3 3 1.346 3 3-1.346 3-3 3zm0-4c-.552 0-1 .449-1 1s.448 1 1 1 1-.449 1-1-.448-1-1-1z" fill="#c1c8d1"/><path d="m59 38h-2v6h-2v-6h-2v6h-2v-6h-2v6h-2v-6h-2v6h-3v2h3v6h2v-6h2v6h2v-6h2v6h2v-6h2v6h2v-6h3v-2h-3z" fill="#c1c8d1"/><path d="m19 38h-2v6h-2v-6h-2v6h-2v-6h-2v6h-2v-6h-2v6h-3v2h3v6h2v-6h2v6h2v-6h2v6h2v-6h2v6h2v-6h3v-2h-3z" fill="#c1c8d1"/><g fill="#4472b2"><path d="m60 15h2c0-7.168-5.832-13-13-13v2c6.065 0 11 4.935 11 11z"/><path d="m56 15h2c0-4.962-4.037-9-9-9v2c3.859 0 7 3.14 7 7z"/><path d="m52 15h2c0-2.757-2.243-5-5-5v2c1.654 0 3 1.346 3 3z"/><path d="m47 20c1.654 0 3-1.346 3-3s-1.346-3-3-3-3 1.346-3 3 1.346 3 3 3zm0-4c.552 0 1 .449 1 1s-.448 1-1 1-1-.449-1-1 .448-1 1-1z"/><path d="m15 4v-2c-7.168 0-13 5.832-13 13h2c0-6.065 4.935-11 11-11z"/><path d="m15 6c-4.963 0-9 4.038-9 9h2c0-3.86 3.141-7 7-7z"/><path d="m15 12v-2c-2.757 0-5 2.243-5 5h2c0-1.654 1.346-3 3-3z"/><path d="m14 17c0 1.654 1.346 3 3 3s3-1.346 3-3-1.346-3-3-3-3 1.346-3 3zm3-1c.552 0 1 .449 1 1s-.448 1-1 1-1-.449-1-1 .448-1 1-1z"/></g></svg>