<svg height="512pt" viewBox="0 0 512 512" width="512pt" xmlns="http://www.w3.org/2000/svg"><g fill="#80deea"><path d="m240 0h32v32h-32zm0 0"/><path d="m240 64h32v384h-32zm0 0"/><path d="m240 480h32v32h-32zm0 0"/></g><path d="m0 337.28125v-162.5625c0-25.886719 29.136719-41.054688 50.351562-26.207031l153.550782 107.488281-153.550782 107.488281c-21.214843 14.847657-50.351562-.320312-50.351562-26.207031zm0 0" fill="#42a5f5"/><path d="m461.648438 363.488281-153.550782-107.488281 153.550782-107.488281c21.214843-14.847657 50.351562.320312 50.351562 26.207031v162.5625c0 25.886719-29.136719 41.054688-50.351562 26.207031zm0 0" fill="#42a5f5"/><path d="m0 337.28125v-81.28125h203.902344l-153.550782 107.488281c-21.214843 14.847657-50.351562-.320312-50.351562-26.207031zm0 0" fill="#1e88e5"/><path d="m461.648438 363.488281-153.550782-107.488281h203.902344v81.28125c0 25.886719-29.136719 41.054688-50.351562 26.207031zm0 0" fill="#1e88e5"/></svg>